<svg xmlns="http://www.w3.org/2000/svg" version="1.1" xmlns:xlink="http://www.w3.org/1999/xlink" xmlns:svgjs="http://svgjs.dev/svgjs" width="1000" height="1000" viewBox="0 0 1000 1000"><rect width="1000" height="1000" fill="#000000"></rect><g transform="matrix(0.7,0,0,0.7,149.90044910179654,149.90044910179637)"><svg viewBox="0 0 334 334" data-background-color="#97978d" preserveAspectRatio="xMidYMid meet" height="1000" width="1000" xmlns="http://www.w3.org/2000/svg" xmlns:xlink="http://www.w3.org/1999/xlink"><g id="tight-bounds" transform="matrix(1,0,0,1,0.04749999999998522,0.04750000000001364)"><svg viewBox="0 0 333.90454557049503 333.90454557049503" height="333.90454557049503" width="333.90454557049503"><g><svg></svg></g><g><svg viewBox="0 0 333.90454557049503 333.90454557049503" height="333.90454557049503" width="333.90454557049503"><g><path d="M0 166.952c0-92.205 74.747-166.952 166.952-166.952 92.205 0 166.952 74.747 166.953 166.952 0 92.205-74.747 166.952-166.953 166.953-92.205 0-166.952-74.747-166.952-166.953zM166.952 327.27c88.541 0 160.317-71.777 160.318-160.318 0-88.541-71.777-160.317-160.318-160.317-88.541 0-160.317 71.777-160.317 160.317 0 88.541 71.777 160.317 160.317 160.318z" data-fill-palette-color="tertiary" fill="#ffffff" stroke="transparent"></path><ellipse rx="160.27418187383762" ry="160.27418187383762" cx="166.95227278524752" cy="166.95227278524752" fill="#ffffff" stroke="transparent" stroke-width="0" fill-opacity="1" data-fill-palette-color="tertiary"></ellipse></g><g transform="matrix(1,0,0,1,108.66558973346056,71.17305217166896)"><svg viewBox="0 0 116.57336610357392 191.55844122715712" height="191.55844122715712" width="116.57336610357392"><g><svg viewBox="0 0 116.57336610357392 191.55844122715712" height="191.55844122715712" width="116.57336610357392"><g><svg viewBox="0 0 213.1584412271571 350.2712506354653" height="191.55844122715712" width="116.57336610357392"><g transform="matrix(1,0,0,1,0,147.81606923274185)"><svg viewBox="0 0 213.1584412271571 202.45518140272347" height="202.45518140272347" width="213.1584412271571"><g id="textblocktransform"><svg viewBox="0 0 213.1584412271571 202.45518140272347" height="202.45518140272347" width="213.1584412271571" id="textblock"><g><svg viewBox="0 0 213.1584412271571 134.5301436666494" height="134.5301436666494" width="213.1584412271571"><g transform="matrix(1,0,0,1,0,0)"><svg width="213.1584412271571" viewBox="-5.5 -38.5 81.5999984741211 51.5" height="134.5301436666494" data-palette-color="#97978d"><path d="M7.25 2.15L7.25-30.9Q7.25-32.65 7.08-33.73 6.9-34.8 6.38-35.43 5.85-36.05 4.85-36.27 3.85-36.5 2.25-36.6L2.25-36.6 2.25-38.5 17.45-38.5 17.45-36.6Q15.85-36.55 14.88-36.3 13.9-36.05 13.38-35.4 12.85-34.75 12.68-33.6 12.5-32.45 12.5-30.55L12.5-30.55 12.5 0.1Q12.5 6.4 9.85 9.7 7.2 13 2.1 13L2.1 13Q-1.35 13-3.43 11.68-5.5 10.35-5.5 8.15L-5.5 8.15Q-5.5 6.85-4.83 6.18-4.15 5.5-2.95 5.5L-2.95 5.5Q-2 5.5-1.43 5.98-0.85 6.45-0.1 7.85L-0.1 7.85Q0.75 9.45 1.38 10.03 2 10.6 3 10.6L3 10.6Q5.05 10.6 6.15 8.4 7.25 6.2 7.25 2.15L7.25 2.15ZM35.5-10.85L35.5-14.8Q32.65-13.7 30.67-12.65 28.7-11.6 27.5-10.55 26.3-9.5 25.77-8.45 25.25-7.4 25.25-6.3L25.25-6.3Q25.25-4.65 26.35-3.6 27.45-2.55 29.25-2.55L29.25-2.55Q30.55-2.55 31.67-3.2 32.8-3.85 33.65-4.98 34.5-6.1 35-7.63 35.5-9.15 35.5-10.85L35.5-10.85ZM28.3-13.8L35.5-16.95 35.5-19Q35.5-25.1 30.3-25.1L30.3-25.1Q29.45-25.1 28.85-24.95 28.25-24.8 27.85-24.45 27.45-24.1 27.12-23.45 26.8-22.8 26.5-21.85L26.5-21.85Q25.95-20.4 25.42-19.93 24.9-19.45 23.9-19.45L23.9-19.45Q21.4-19.45 21.4-21.95L21.4-21.95Q21.4-24.35 23.95-25.68 26.5-27 31.2-27L31.2-27Q36.2-27 38.3-25.23 40.4-23.45 40.4-19.2L40.4-19.2 40.4-8Q40.4-2.3 42.65-2.3L42.65-2.3Q43.35-2.3 44-2.48 44.65-2.65 45.1-3.4L45.1-3.4 45.8-2.2Q45.2-1.05 43.6-0.28 42 0.5 40.25 0.5L40.25 0.5Q38.05 0.5 36.97-0.9 35.9-2.3 35.9-4.85L35.9-4.85 35.65-4.85Q34.35-2.4 32.05-0.98 29.75 0.45 26.95 0.45L26.95 0.45Q23.8 0.45 22-1.15 20.2-2.75 20.2-5.45L20.2-5.45Q20.2-6.65 20.62-7.75 21.05-8.85 22-9.85 22.95-10.85 24.5-11.83 26.05-12.8 28.3-13.8L28.3-13.8ZM69.65-16.4L58.75 7.85Q56.45 13 51.6 13L51.6 13Q48.45 13 48.45 10.65L48.45 10.65Q48.45 9.4 49.32 8.83 50.2 8.25 52.55 7.85L52.55 7.85Q53.6 7.7 54.35 7.43 55.1 7.15 55.7 6.73 56.3 6.3 56.77 5.65 57.25 5 57.7 4.05L57.7 4.05 59.45 0.55 49.85-20.3Q49.2-21.7 48.72-22.53 48.25-23.35 47.72-23.83 47.2-24.3 46.55-24.48 45.9-24.65 44.9-24.75L44.9-24.75 44.9-26.5 58.15-26.5 58.15-24.75Q54.8-24.75 54.8-23.1L54.8-23.1Q54.8-22.45 55.2-21.05 55.6-19.65 56.2-18.2L56.2-18.2 61.7-4.9 61.95-4.9 66.5-16.15Q67.15-17.8 67.57-18.85 68-19.9 68.22-20.58 68.45-21.25 68.52-21.7 68.6-22.15 68.6-22.55L68.6-22.55Q68.6-23.85 67.87-24.3 67.15-24.75 65.1-24.75L65.1-24.75 65.1-26.5 76.1-26.5 76.1-24.75Q75.15-24.75 74.5-24.5 73.85-24.25 73.17-23.38 72.5-22.5 71.67-20.85 70.85-19.2 69.65-16.4L69.65-16.4Z" opacity="1" transform="matrix(1,0,0,1,0,0)" fill="#000000" class="wordmark-text-0" data-fill-palette-color="quaternary" id="text-0"></path></svg></g></svg></g><g transform="matrix(1,0,0,1,0,166.28948186289733)"><svg viewBox="0 0 213.1584412271571 36.16569953982614" height="36.16569953982614" width="213.1584412271571"><g transform="matrix(1,0,0,1,0,0)"><svg width="213.1584412271571" viewBox="1.6100000143051147 -36.060001373291016 237.41000366210938 40.28000259399414" height="36.16569953982614" data-palette-color="#97978d"><path d="M18.85 0L1.61 0 1.61-3.76 5.49-4.49 5.49-31.03 1.61-31.76 1.61-35.55 5.49-35.55 17.21-35.55Q23.19-35.55 26.55-33.12 29.91-30.69 29.91-25.85L29.91-25.85Q29.91-23.44 28.52-21.52 27.12-19.6 24.66-18.68L24.66-18.68Q26.81-18.21 28.27-16.99 29.74-15.77 30.51-14.03 31.27-12.28 31.27-10.21L31.27-10.21Q31.27-5.2 27.99-2.6 24.71 0 18.85 0L18.85 0ZM11.65-16.14L11.65-4.74 18.85-4.74Q21.88-4.74 23.5-6.14 25.12-7.54 25.12-10.21L25.12-10.21Q25.12-12.08 24.51-13.4 23.9-14.72 22.66-15.43 21.41-16.14 19.46-16.14L19.46-16.14 11.65-16.14ZM11.65-30.79L11.65-20.56 17.9-20.56Q20.63-20.56 22.19-21.88 23.75-23.19 23.75-25.56L23.75-25.56Q23.75-28.22 22.09-29.5 20.43-30.79 17.21-30.79L17.21-30.79 11.65-30.79ZM46.63 0.51L46.63 0.51Q42.89 0.51 40.12-1.16 37.35-2.83 35.83-5.79 34.3-8.74 34.3-12.55L34.3-12.55 34.3-13.57Q34.3-17.43 35.8-20.45 37.3-23.46 39.94-25.18 42.58-26.9 45.94-26.9L45.94-26.9Q49.53-26.9 51.96-25.46 54.39-24.02 55.64-21.37 56.88-18.73 56.88-15.01L56.88-15.01 56.88-11.5 40.67-11.5 40.62-11.38Q40.72-9.3 41.49-7.69 42.26-6.08 43.69-5.15 45.11-4.22 47.17-4.22L47.17-4.22Q49.31-4.22 51.07-4.81 52.83-5.4 54.32-6.47L54.32-6.47 56.25-2.61Q54.69-1.29 52.27-0.39 49.85 0.51 46.63 0.51ZM40.7-15.94L40.77-15.82 51-15.82 51-16.46Q51-18.19 50.47-19.49 49.95-20.8 48.84-21.53 47.73-22.27 46.02-22.27L46.02-22.27Q44.53-22.27 43.41-21.44 42.28-20.61 41.61-19.18 40.94-17.75 40.7-15.94L40.7-15.94ZM71.48 0.51L71.48 0.51Q68.65 0.51 66.19-0.04 63.74-0.59 61.27-1.66L61.27-1.66 61.2-8.64 65.62-8.64 66.55-4.83Q67.6-4.37 68.71-4.11 69.82-3.86 71.19-3.86L71.19-3.86Q73.82-3.86 74.91-4.79 76-5.71 76-7.08L76-7.08Q76-8.4 74.86-9.34 73.73-10.28 70.53-10.96L70.53-10.96Q65.79-11.99 63.56-13.95 61.32-15.92 61.32-19.07L61.32-19.07Q61.32-21.24 62.48-23 63.64-24.76 65.9-25.82 68.16-26.88 71.45-26.88L71.45-26.88Q74.46-26.88 76.79-26.26 79.12-25.63 80.76-24.61L80.76-24.61 80.9-17.9 76.53-17.9 75.78-21.39Q75.02-21.92 74.02-22.22 73.02-22.51 71.72-22.51L71.72-22.51Q69.7-22.51 68.53-21.62 67.35-20.73 67.35-19.38L67.35-19.38Q67.35-18.6 67.73-17.97 68.11-17.33 69.2-16.81 70.28-16.28 72.38-15.8L72.38-15.8Q77.53-14.6 79.76-12.67 81.98-10.74 81.98-7.57L81.98-7.57Q81.98-4.03 79.39-1.76 76.8 0.51 71.48 0.51ZM95.48 0.46L95.48 0.46Q92.11 0.46 90.23-1.43 88.35-3.32 88.35-7.47L88.35-7.47 88.35-22.02 84.49-22.02 84.49-26.42 88.35-26.42 88.35-32.84 94.47-32.84 94.47-26.42 99.7-26.42 99.7-22.02 94.47-22.02 94.47-7.47Q94.47-5.79 95.17-5.02 95.87-4.25 97.06-4.25L97.06-4.25Q97.75-4.25 98.59-4.37 99.43-4.49 99.94-4.61L99.94-4.61 100.58-0.29Q99.5 0.02 98.12 0.24 96.75 0.46 95.48 0.46ZM126.65 4.22L104.29 4.22 104.29 0 126.65 0 126.65 4.22ZM144.88 0L130.99 0 130.99-3.76 134.85-4.49 134.85-31.03 130.99-31.76 130.99-35.55 134.85-35.55 143.66-35.55 154.09-9.84 154.24-9.84 164.34-35.55 177.16-35.55 177.16-31.76 173.28-31.03 173.28-4.49 177.16-3.76 177.16 0 163.27 0 163.27-3.76 167.35-4.49 167.35-12.77 167.39-28.32 167.27-28.34 156.26-0.81 151.79-0.81 140.47-28.2 140.34-28.17 140.66-13.18 140.66-4.49 144.88-3.76 144.88 0ZM197.01 0.51L197.01 0.51Q191.76 0.51 188.03-1.72 184.31-3.96 182.35-7.97 180.38-11.99 180.38-17.31L180.38-17.31 180.38-18.21Q180.38-23.41 182.33-27.43 184.29-31.45 187.92-33.75 191.56-36.06 196.62-36.06L196.62-36.06Q200.16-36.06 203.18-35.01 206.21-33.96 208.46-32.06L208.46-32.06 208.46-23.85 203.77-23.85 203.13-29.35Q202.33-29.93 201.35-30.35 200.38-30.76 199.22-30.98 198.06-31.2 196.69-31.2L196.69-31.2Q193.49-31.2 191.21-29.59 188.93-27.98 187.73-25.07 186.53-22.17 186.53-18.26L186.53-18.26 186.53-17.31Q186.53-13.26 187.8-10.34 189.07-7.42 191.45-5.86 193.83-4.3 197.15-4.3L197.15-4.3Q198.76-4.3 200.34-4.68 201.91-5.05 203.11-5.66L203.11-5.66 203.77-10.64 208.41-10.64 208.41-2.49Q206.36-1.15 203.39-0.32 200.42 0.51 197.01 0.51ZM226.15 0.51L226.15 0.51Q222.52 0.51 219.39-0.39 216.27-1.29 213.31-3.39L213.31-3.39 213.31-11.57 218.07-11.57 218.85-6.27Q220.15-5.35 222.04-4.79 223.93-4.22 226.15-4.22L226.15-4.22Q228.33-4.22 229.8-4.85 231.28-5.47 232.06-6.59 232.84-7.71 232.84-9.25L232.84-9.25Q232.84-10.67 232.16-11.77 231.48-12.87 229.89-13.73 228.3-14.6 225.59-15.33L225.59-15.33Q221.61-16.41 218.94-17.87 216.27-19.34 214.91-21.39 213.56-23.44 213.56-26.22L213.56-26.22Q213.56-29.08 215.11-31.27 216.66-33.47 219.42-34.74 222.17-36.01 225.79-36.04L225.79-36.04Q229.74-36.08 232.78-35.01 235.82-33.94 237.92-32.2L237.92-32.2 237.92-24.56 233.26-24.56 232.38-29.54Q231.38-30.25 229.78-30.75 228.18-31.25 226.01-31.25L226.01-31.25Q224.15-31.25 222.74-30.64 221.32-30.03 220.51-28.92 219.71-27.81 219.71-26.27L219.71-26.27Q219.71-24.93 220.42-23.93 221.13-22.92 222.79-22.11 224.45-21.29 227.28-20.46L227.28-20.46Q233.06-18.92 236.04-16.21 239.02-13.5 239.02-9.3L239.02-9.3Q239.02-6.35 237.42-4.14 235.82-1.93 232.93-0.71 230.04 0.51 226.15 0.51Z" opacity="1" transform="matrix(1,0,0,1,0,0)" fill="#000000" class="slogan-text-1" data-fill-palette-color="quaternary" id="text-1"></path></svg></g></svg></g></svg></g></svg></g><g transform="matrix(1,0,0,1,40.713262274387006,0)"><svg viewBox="0 0 131.7319166783831 116.05673103649393" height="116.05673103649393" width="131.7319166783831"><g><svg xmlns="http://www.w3.org/2000/svg" xmlns:xlink="http://www.w3.org/1999/xlink" version="1.1" x="0" y="0" viewBox="6.300000190734863 11.5 87.39999389648438 77" style="enable-background:new 0 0 100 100;" xml:space="preserve" height="116.05673103649393" width="131.7319166783831" class="icon-icon-0" data-fill-palette-color="quaternary" id="icon-0"><path d="M72.3 12.3L72.3 12.3 72.3 12.3l-0.4-0.8H28.2L6.3 50l21.8 38.5h43.7L93.7 50 72.3 12.3zM33.3 25.3L9.9 47.7l18.6-32.8L33.3 25.3zM70.7 14.8l6.4 35.7L36.9 25.8 70.7 14.8zM35.5 27.3l41 25.2-41 23.3V27.3zM77 54.5l-7.2 30.8-32.6-8.1L77 54.5zM33.5 75L9.9 50.5l23.6-22.7V75zM33.2 77.6l-4.6 7.7L11.5 55.1 33.2 77.6zM35 78.6l31.4 7.9H30.2L35 78.6zM79.3 53.3l11.6-2.5L72.1 84 79.3 53.3zM90.7 48.9l-11.4 2.5-5.9-33.1L90.7 48.9zM35 24.3l-5-10.8h38.2L35 24.3z" fill="#000000" data-fill-palette-color="quaternary"></path></svg></g></svg></g><g></g></svg></g></svg></g></svg></g></svg></g><defs></defs></svg><rect width="333.90454557049503" height="333.90454557049503" fill="none" stroke="none" visibility="hidden"></rect></g></svg></g></svg>